<svg width="54" height="53" viewBox="0 0 54 53" fill="none" xmlns="http://www.w3.org/2000/svg">
<path d="M47.6642 45.0335L37.4678 34.8391C40.4231 31.291 41.8968 26.7402 41.5823 22.1332C41.2677 17.5263 39.1892 13.2179 35.779 10.1045C32.3689 6.99098 27.8897 5.31207 23.2732 5.41699C18.6567 5.52191 14.2584 7.40257 10.9932 10.6678C7.72801 13.933 5.84735 18.3313 5.74243 22.9477C5.63751 27.5642 7.31642 32.0434 10.4299 35.4536C13.5434 38.8638 17.8517 40.9423 22.4587 41.2568C27.0656 41.5714 31.6165 40.0977 35.1646 37.1423L45.359 47.3388C45.5103 47.4902 45.69 47.6102 45.8878 47.6921C46.0856 47.7741 46.2975 47.8162 46.5116 47.8162C46.7257 47.8162 46.9376 47.7741 47.1354 47.6921C47.3332 47.6102 47.5129 47.4902 47.6642 47.3388C47.8156 47.1874 47.9357 47.0077 48.0176 46.81C48.0995 46.6122 48.1417 46.4002 48.1417 46.1862C48.1417 45.9721 48.0995 45.7601 48.0176 45.5624C47.9357 45.3646 47.8156 45.1849 47.6642 45.0335ZM9.04111 23.378C9.04111 20.4781 9.90104 17.6433 11.5122 15.2321C13.1233 12.8208 15.4132 10.9415 18.0924 9.83177C20.7716 8.72202 23.7197 8.43165 26.564 8.9974C29.4082 9.56315 32.0208 10.9596 34.0713 13.0102C36.1219 15.0607 37.5184 17.6733 38.0841 20.5175C38.6499 23.3618 38.3595 26.3099 37.2497 28.9891C36.14 31.6683 34.2607 33.9582 31.8494 35.5693C29.4382 37.1805 26.6034 38.0404 23.7035 38.0404C19.8161 38.0361 16.0892 36.4899 13.3404 33.7411C10.5916 30.9923 9.04542 27.2654 9.04111 23.378Z" fill="white"/>
</svg>
