<svg width="64" height="63" viewBox="0 0 64 63" fill="none" xmlns="http://www.w3.org/2000/svg">
<path d="M41.7664 31.3193C41.7664 31.8366 41.5609 32.3327 41.1951 32.6985C40.8294 33.0643 40.3332 33.2698 39.8159 33.2698H24.2118C23.6944 33.2698 23.1983 33.0643 22.8325 32.6985C22.4667 32.3327 22.2612 31.8366 22.2612 31.3193C22.2612 30.8019 22.4667 30.3058 22.8325 29.94C23.1983 29.5742 23.6944 29.3687 24.2118 29.3687H39.8159C40.3332 29.3687 40.8294 29.5742 41.1951 29.94C41.5609 30.3058 41.7664 30.8019 41.7664 31.3193ZM39.8159 37.1708H24.2118C23.6944 37.1708 23.1983 37.3763 22.8325 37.7421C22.4667 38.1079 22.2612 38.604 22.2612 39.1213C22.2612 39.6386 22.4667 40.1348 22.8325 40.5006C23.1983 40.8664 23.6944 41.0719 24.2118 41.0719H39.8159C40.3332 41.0719 40.8294 40.8664 41.1951 40.5006C41.5609 40.1348 41.7664 39.6386 41.7664 39.1213C41.7664 38.604 41.5609 38.1079 41.1951 37.7421C40.8294 37.3763 40.3332 37.1708 39.8159 37.1708ZM53.4696 11.814V48.8739C53.4696 50.9432 52.6476 52.9277 51.1844 54.3908C49.7212 55.854 47.7367 56.676 45.6675 56.676H18.3602C16.2909 56.676 14.3065 55.854 12.8433 54.3908C11.3801 52.9277 10.5581 50.9432 10.5581 48.8739V11.814C10.5581 10.7794 10.9691 9.78718 11.7007 9.05559C12.4323 8.32401 13.4245 7.913 14.4591 7.913H18.3602V5.96248C18.3602 5.44517 18.5657 4.94905 18.9315 4.58326C19.2973 4.21746 19.7934 4.01196 20.3107 4.01196C20.828 4.01196 21.3241 4.21746 21.6899 4.58326C22.0557 4.94905 22.2612 5.44517 22.2612 5.96248V7.913H30.0633V5.96248C30.0633 5.44517 30.2688 4.94905 30.6346 4.58326C31.0004 4.21746 31.4965 4.01196 32.0138 4.01196C32.5311 4.01196 33.0273 4.21746 33.3931 4.58326C33.7589 4.94905 33.9644 5.44517 33.9644 5.96248V7.913H41.7664V5.96248C41.7664 5.44517 41.9719 4.94905 42.3377 4.58326C42.7035 4.21746 43.1996 4.01196 43.717 4.01196C44.2343 4.01196 44.7304 4.21746 45.0962 4.58326C45.462 4.94905 45.6675 5.44517 45.6675 5.96248V7.913H49.5685C50.6031 7.913 51.5954 8.32401 52.327 9.05559C53.0586 9.78718 53.4696 10.7794 53.4696 11.814ZM49.5685 11.814H45.6675V13.7646C45.6675 14.2819 45.462 14.778 45.0962 15.1438C44.7304 15.5096 44.2343 15.7151 43.717 15.7151C43.1996 15.7151 42.7035 15.5096 42.3377 15.1438C41.9719 14.778 41.7664 14.2819 41.7664 13.7646V11.814H33.9644V13.7646C33.9644 14.2819 33.7589 14.778 33.3931 15.1438C33.0273 15.5096 32.5311 15.7151 32.0138 15.7151C31.4965 15.7151 31.0004 15.5096 30.6346 15.1438C30.2688 14.778 30.0633 14.2819 30.0633 13.7646V11.814H22.2612V13.7646C22.2612 14.2819 22.0557 14.778 21.6899 15.1438C21.3241 15.5096 20.828 15.7151 20.3107 15.7151C19.7934 15.7151 19.2973 15.5096 18.9315 15.1438C18.5657 14.778 18.3602 14.2819 18.3602 13.7646V11.814H14.4591V48.8739C14.4591 49.9086 14.8701 50.9008 15.6017 51.6324C16.3333 52.364 17.3256 52.775 18.3602 52.775H45.6675C46.7021 52.775 47.6943 52.364 48.4259 51.6324C49.1575 50.9008 49.5685 49.9086 49.5685 48.8739V11.814Z" fill="white"/>
</svg>
