<svg width="67" height="68" viewBox="0 0 67 68" fill="none" xmlns="http://www.w3.org/2000/svg">
<path fill-rule="evenodd" clip-rule="evenodd" d="M22.1042 12.4009C22.1042 9.50423 23.2549 6.7262 25.3031 4.67795C27.3514 2.6297 30.1294 1.479 33.026 1.479C35.9227 1.479 38.7007 2.6297 40.749 4.67795C42.7972 6.7262 43.9479 9.50423 43.9479 12.4009C43.9479 15.2976 42.7972 18.0756 40.749 20.1238C38.7007 22.1721 35.9227 23.3228 33.026 23.3228C30.1294 23.3228 27.3514 22.1721 25.3031 20.1238C23.2549 18.0756 22.1042 15.2976 22.1042 12.4009ZM11.5408 30.2911C13.7641 28.1805 16.7127 27.0038 19.7782 27.0038C22.8438 27.0038 25.7924 28.1805 28.0157 30.2911L28.0628 30.3383L33.026 35.3015L37.994 30.3383L38.0411 30.2911C40.2639 28.1833 43.2106 27.0083 46.2738 27.0083C49.3371 27.0083 52.2837 28.1833 54.5065 30.2911C55.6106 31.3382 56.4902 32.599 57.0917 33.9967C57.6932 35.3945 58.004 36.9 58.0053 38.4217C58.0067 39.9433 57.6984 41.4494 57.0994 42.8482C56.5003 44.247 55.623 45.5093 54.5207 46.5583L34.6679 65.8544C34.2276 66.2824 33.6377 66.5219 33.0237 66.5219C32.4096 66.5219 31.8198 66.2824 31.3795 65.8544L11.5314 46.5583C10.4296 45.5097 9.55247 44.2479 8.95345 42.8497C8.35444 41.4515 8.04599 39.9461 8.04688 38.425C8.04776 36.9039 8.35795 35.3989 8.95859 34.0014C9.55923 32.6039 10.4378 31.3385 11.5408 30.2911Z" fill="white"/>
</svg>
